<?xml version="1.0" standalone="no"?>
<!DOCTYPE svg PUBLIC "-//W3C//DTD SVG 1.1//EN" "http://www.w3.org/Graphics/SVG/1.1/DTD/svg11.dtd">
<svg width="178mm" height="154mm" viewBox="-105 -69 178 154" xmlns="http://www.w3.org/2000/svg" version="1.1">
<title>OpenSCAD Model</title>
<path d="
M -58.247,76.738 L -22.659,63.418 L 5.46934,48.5524 L 26.613,48.857 L 44.833,48.857 L 67.956,26.149
 L 71.005,23.148 L 71.005,23.048 L 70.529,5.476 L 70.471,1.09 L 70.471,-17.21 L 70.529,-21.596
 L 71.005,-39.168 L 71.174,-43.159 L 72.182,-59.967 L 72.182,-60.067 L 69.206,-62.656 L 46.824,-66.828
 L 24.104,-68.065 L 5.859,-68.805 L 5.759,-68.805 L -13.276,-67.669 L -31.669,-65.94 L -52.338,-62.709
 L -55.883,-60.04 L -60.26,-42.71 L -60.926,-39.011 L -62.979,-21.316 L -63.207,-17.31 L -64.205,1.09
 L -66.524,9.352 L -82.4614,16.2316 L -102.135,23.595 L -104.003,27.566 L -104.003,27.666 L -97.504,45.0162
 L -97.504,45.017 L -91.006,62.3661 L -91.006,62.367 L -83.344,82.822 L -79.326,84.59 L -79.226,84.59
 z
M 66.3152,-54.7285 L 66.0482,-54.7926 L 65.7945,-54.8977 L 65.5604,-55.0412 L 65.3516,-55.2196 L 65.1732,-55.4284
 L 65.0297,-55.6625 L 64.9247,-55.9162 L 64.8605,-56.1832 L 64.839,-56.457 L 64.8605,-56.7308 L 64.9247,-56.9978
 L 65.0297,-57.2515 L 65.1732,-57.4856 L 65.3516,-57.6944 L 65.5604,-57.8728 L 65.7945,-58.0163 L 66.0482,-58.1213
 L 66.3152,-58.1855 L 66.589,-58.207 L 66.8628,-58.1855 L 67.1298,-58.1213 L 67.3835,-58.0163 L 67.6176,-57.8728
 L 67.8264,-57.6944 L 68.0048,-57.4856 L 68.1483,-57.2515 L 68.2533,-56.9978 L 68.3175,-56.7308 L 68.339,-56.457
 L 68.3175,-56.1832 L 68.2533,-55.9162 L 68.1483,-55.6625 L 68.0048,-55.4284 L 67.8264,-55.2196 L 67.6176,-55.0412
 L 67.3835,-54.8977 L 67.1298,-54.7926 L 66.8628,-54.7285 L 66.589,-54.707 z
M -55.3698,-39.9125 L -55.6368,-39.9767 L -55.8905,-40.0817 L -56.1246,-40.2252 L -56.3334,-40.4036 L -56.5118,-40.6124
 L -56.6553,-40.8465 L -56.7603,-41.1002 L -56.8245,-41.3672 L -56.846,-41.641 L -56.8245,-41.9148 L -56.7603,-42.1818
 L -56.6553,-42.4355 L -56.5118,-42.6696 L -56.3334,-42.8784 L -56.1246,-43.0568 L -55.8905,-43.2003 L -55.6368,-43.3053
 L -55.3698,-43.3695 L -55.096,-43.391 L -54.8222,-43.3695 L -54.5552,-43.3053 L -54.3015,-43.2003 L -54.0674,-43.0568
 L -53.8586,-42.8784 L -53.6802,-42.6696 L -53.5367,-42.4355 L -53.4316,-42.1818 L -53.3675,-41.9148 L -53.346,-41.641
 L -53.3675,-41.3672 L -53.4316,-41.1002 L -53.5367,-40.8465 L -53.6802,-40.6124 L -53.8586,-40.4036 L -54.0674,-40.2252
 L -54.3015,-40.0817 L -54.5552,-39.9767 L -54.8222,-39.9125 L -55.096,-39.891 z
M -63.9688,16.4545 L -64.2358,16.3903 L -64.4895,16.2853 L -64.7236,16.1418 L -64.9324,15.9634 L -65.1108,15.7546
 L -65.2543,15.5205 L -65.3593,15.2668 L -65.4235,14.9998 L -65.445,14.726 L -65.4235,14.4522 L -65.3593,14.1852
 L -65.2543,13.9315 L -65.1108,13.6974 L -64.9324,13.4886 L -64.7236,13.3102 L -64.4895,13.1667 L -64.2358,13.0617
 L -63.9688,12.9975 L -63.695,12.976 L -63.4212,12.9975 L -63.1542,13.0617 L -62.9005,13.1667 L -62.6664,13.3102
 L -62.4576,13.4886 L -62.2792,13.6974 L -62.1357,13.9315 L -62.0307,14.1852 L -61.9665,14.4522 L -61.945,14.726
 L -61.9665,14.9998 L -62.0307,15.2668 L -62.1357,15.5205 L -62.2792,15.7546 L -62.4576,15.9634 L -62.6664,16.1418
 L -62.9005,16.2853 L -63.1542,16.3903 L -63.4212,16.4545 L -63.695,16.476 z
M 64.8002,23.2235 L 64.5332,23.1593 L 64.2795,23.0543 L 64.0454,22.9108 L 63.8366,22.7324 L 63.6582,22.5236
 L 63.5147,22.2895 L 63.4097,22.0358 L 63.3455,21.7688 L 63.324,21.495 L 63.3455,21.2212 L 63.4097,20.9542
 L 63.5147,20.7005 L 63.6582,20.4664 L 63.8366,20.2576 L 64.0454,20.0792 L 64.2795,19.9357 L 64.5332,19.8307
 L 64.8002,19.7665 L 65.074,19.745 L 65.3478,19.7665 L 65.6148,19.8307 L 65.8685,19.9357 L 66.1026,20.0792
 L 66.3114,20.2576 L 66.4898,20.4664 L 66.6333,20.7005 L 66.7383,20.9542 L 66.8025,21.2212 L 66.824,21.495
 L 66.8025,21.7688 L 66.7383,22.0358 L 66.6333,22.2895 L 66.4898,22.5236 L 66.3114,22.7324 L 66.1026,22.9108
 L 65.8685,23.0543 L 65.6148,23.1593 L 65.3478,23.2235 L 65.074,23.245 z
M -60.7318,73.1695 L -60.9988,73.1053 L -61.2525,73.0003 L -61.4866,72.8568 L -61.6954,72.6784 L -61.8738,72.4696
 L -62.0173,72.2355 L -62.1223,71.9818 L -62.1865,71.7148 L -62.208,71.441 L -62.1865,71.1672 L -62.1223,70.9002
 L -62.0173,70.6465 L -61.8738,70.4124 L -61.6954,70.2036 L -61.4866,70.0252 L -61.2525,69.8817 L -60.9988,69.7766
 L -60.7318,69.7125 L -60.458,69.691 L -60.1842,69.7125 L -59.9172,69.7766 L -59.6635,69.8817 L -59.4294,70.0252
 L -59.2206,70.2036 L -59.0422,70.4124 L -58.8987,70.6465 L -58.7937,70.9002 L -58.7295,71.1672 L -58.708,71.441
 L -58.7295,71.7148 L -58.7937,71.9818 L -58.8987,72.2355 L -59.0422,72.4696 L -59.2206,72.6784 L -59.4294,72.8568
 L -59.6635,73.0003 L -59.9172,73.1053 L -60.1842,73.1695 L -60.458,73.191 z
" stroke="black" fill="lightgray" stroke-width="0.5"/>
</svg>
